<?xml version="1.0" encoding="iso-8859-1"?>
<!-- Generator: Adobe Illustrator 19.0.0, SVG Export Plug-In . SVG Version: 6.00 Build 0)  -->
<svg version="1.1" id="Capa_1" xmlns="http://www.w3.org/2000/svg" xmlns:xlink="http://www.w3.org/1999/xlink" x="0px" y="0px"
	 viewBox="0 0 512 512" style="enable-background:new 0 0 512 512;" xml:space="preserve">
<g>
	<g>
		<path d="M255.975,376c-5.52,0-10,4.48-10,10c0,5.52,4.48,10,10,10c5.52,0,10-4.48,10-10C265.975,380.48,261.495,376,255.975,376z"
			/>
	</g>
</g>
<g>
	<g>
		<path d="M465.975,290.068c0.015-8.03-3.101-15.582-8.772-21.263c-5.667-5.678-13.207-8.805-21.228-8.805h-10v-70
			c0-13.435-5.336-25.639-13.987-34.632c8.475-5.374,13.987-14.713,13.987-25.368c0-16.542-13.458-30-30-30h-100
			c-16.576,0-30,13.425-30,30c0,10.661,5.595,20.035,13.998,25.357c-8.658,8.994-13.998,21.203-13.998,34.643v70h-20v-80
			c0-28.57-15.506-55.104-40-69.29V58.297c11.393-4.019,20-14.967,20-28.297c0-16.542-13.458-30-30-30h-60
			c-16.577,0-30,13.425-30,30c0,13.036,8.361,24.152,20,28.28v52.43c-24.494,14.186-40,40.72-40,69.29v80h-10
			c-16.498,0-29.956,13.423-30,29.953l0.05,191.971c-0.021,8.029,3.088,15.58,8.755,21.263C60.449,508.87,67.994,512,76.025,512h360
			c16.498,0,29.956-13.423,30-29.953L465.975,290.068z M295.975,120h100c5.514,0,10,4.486,10,10c0,5.521-4.478,10-10,10
			c-11.682,0-89.392,0-100,0c-5.514,0-10-4.486-10-10C285.975,124.479,290.453,120,295.975,120z M285.975,190
			c0-16.542,13.458-30,30-30h60c16.542,0,30,13.458,30,30v10h-120V190z M285.975,220h120v40h-120V220z M135.975,20h60
			c5.514,0,10,4.486,10,10c0,5.521-4.478,10-10,10h-60c-5.514,0-10-4.486-10-10C125.975,24.479,130.453,20,135.975,20z
			 M140.265,125.773c3.488-1.656,5.71-5.172,5.71-9.033V60h40v56.74c0,3.861,2.223,7.377,5.71,9.033
			c20.831,9.892,34.29,31.177,34.29,54.227h-120C105.975,156.95,119.434,135.665,140.265,125.773z M105.975,200h120v60h-120V200z
			 M436.025,492h-360c-2.679,0-5.195-1.043-7.084-2.938c-1.888-1.893-2.923-4.409-2.916-7.115l-0.05-191.971
			c0.015-5.501,4.501-9.977,10-9.977h360c2.672,0.001,5.185,1.043,7.073,2.935c1.892,1.896,2.932,4.417,2.927,7.118l0.05,191.971
			C446.01,487.524,441.524,492,436.025,492z"/>
	</g>
</g>
<g>
	<g>
		<path d="M375.975,326h-240c-5.523,0-10,4.477-10,10v100c0,5.523,4.477,10,10,10h240c5.523,0,10-4.477,10-10V336
			C385.975,330.477,381.498,326,375.975,326z M365.975,426h-220v-80h220V426z"/>
	</g>
</g>
<g>
	<g>
		<path d="M215.975,376h-40c-5.523,0-10,4.477-10,10s4.477,10,10,10h40c5.523,0,10-4.477,10-10S221.498,376,215.975,376z"/>
	</g>
</g>
<g>
	<g>
		<path d="M335.975,376h-40c-5.523,0-10,4.477-10,10s4.477,10,10,10h40c5.523,0,10-4.477,10-10S341.498,376,335.975,376z"/>
	</g>
</g>
<g>
</g>
<g>
</g>
<g>
</g>
<g>
</g>
<g>
</g>
<g>
</g>
<g>
</g>
<g>
</g>
<g>
</g>
<g>
</g>
<g>
</g>
<g>
</g>
<g>
</g>
<g>
</g>
<g>
</g>
</svg>
